<svg width="152" height="40" viewBox="0 0 152 40" fill="none" xmlns="http://www.w3.org/2000/svg">
<path d="M4.91284 17.5127L17.5126 4.91164L18.3747 5.77373L5.77494 18.376L4.91284 17.5127ZM20.894 33.4962L33.4962 20.894L34.3583 21.7561L21.7585 34.3559L20.894 33.4962ZM4.91284 21.7549L5.77494 20.8928L18.3747 33.4938L17.5126 34.3559L4.91284 21.7549ZM20.894 5.77373L21.7573 4.91164L34.3571 17.5102L33.495 18.3723L20.894 5.77373Z" fill="url(#paint0_linear_160_31259)"/>
<path d="M19.51 1.7242L21.5622 3.7764L19.51 5.82739L17.4578 3.77519L19.51 1.7242ZM19.51 0L15.7336 3.7764L19.51 7.55281L23.2864 3.7764L19.51 0ZM19.51 33.1926L21.5622 35.2448L19.51 37.2958L17.4578 35.2436L19.51 33.1926ZM19.51 31.4672L15.7336 35.2436L19.51 39.02L23.2864 35.2436L19.51 31.4672ZM3.7764 17.4578L5.82739 19.51L3.77519 21.5622L1.7242 19.51L3.7764 17.4578ZM3.7764 15.7336L0 19.51L3.7764 23.2864L7.55281 19.51L3.7764 15.7336ZM35.2436 17.4578L37.2958 19.51L35.2436 21.5622L33.1926 19.51L35.2436 17.4578ZM35.2436 15.7336L31.4672 19.51L35.2436 23.2864L39.02 19.51L35.2436 15.7336Z" fill="url(#paint1_linear_160_31259)"/>
<path d="M56.02 28.9282V11.11H58.4382V28.9282H56.02ZM68.1836 16.2009C71.5776 16.2009 73.2745 18.1524 73.2745 22.0555V28.9282H70.9836V22.0555C70.9836 20.71 70.7351 19.7403 70.2382 19.1464C69.7412 18.5403 68.9048 18.2373 67.7291 18.2373C66.9776 18.2373 66.2988 18.3706 65.6927 18.6373C65.0867 18.9161 64.626 19.3282 64.3109 19.8736V28.9282H62.02V16.4555H63.8018L64.0564 17.7827C64.723 17.1888 65.3897 16.7767 66.0564 16.5464C66.7351 16.3161 67.4442 16.2009 68.1836 16.2009ZM79.8018 29.1827C78.8079 29.1827 77.9473 29.0676 77.22 28.8373C76.4806 28.607 75.9109 28.3585 75.5109 28.0918L75.8018 25.8736C76.1412 26.1767 76.6624 26.4676 77.3654 26.7464C78.0685 27.013 78.8442 27.1464 79.6927 27.1464C80.4927 27.1464 81.1109 27.013 81.5473 26.7464C81.9715 26.4676 82.1836 26.0858 82.1836 25.6009C82.1836 25.0191 81.9473 24.5827 81.4745 24.2918C81.0018 23.9888 80.4079 23.7342 79.6927 23.5282C78.917 23.3221 78.2624 23.1039 77.7291 22.8736C77.1836 22.6555 76.723 22.3039 76.3473 21.8191C75.9594 21.3464 75.7654 20.7221 75.7654 19.9464C75.7654 18.8797 76.1473 17.9888 76.9109 17.2736C77.6745 16.5585 78.8564 16.2009 80.4564 16.2009C81.1836 16.2009 81.8018 16.2736 82.3109 16.4191C82.82 16.5646 83.3291 16.7646 83.8382 17.0191L83.5654 19.11C83.1533 18.7706 82.7048 18.5039 82.22 18.31C81.723 18.1039 81.1533 18.0009 80.5109 18.0009C79.7594 18.0009 79.1715 18.1403 78.7473 18.4191C78.3109 18.71 78.0927 19.1342 78.0927 19.6918C78.0927 20.0676 78.1957 20.3706 78.4018 20.6009C78.5957 20.8191 78.8806 21.007 79.2564 21.1646C79.6321 21.3221 80.2079 21.5161 80.9836 21.7464C81.9533 22.0373 82.7897 22.4433 83.4927 22.9646C84.1957 23.4979 84.5473 24.3342 84.5473 25.4736C84.5473 26.4918 84.1897 27.3646 83.4745 28.0918C82.7473 28.8191 81.523 29.1827 79.8018 29.1827ZM94.7291 16.4555H97.02V28.9282H94.9836L94.7291 27.5464C94.3291 28.1161 93.8503 28.5282 93.2927 28.7827C92.7473 29.0494 92.0745 29.1827 91.2745 29.1827C89.7836 29.1827 88.6442 28.7282 87.8563 27.8191C87.0685 26.91 86.6745 25.5403 86.6745 23.71V16.4555H88.9654V23.0736C88.9654 24.4312 89.1957 25.4494 89.6564 26.1282C90.1291 26.807 90.8624 27.1464 91.8563 27.1464C92.4503 27.1464 93.0079 27.0252 93.5291 26.7827C94.0503 26.5524 94.4503 26.207 94.7291 25.7464V16.4555ZM100.129 28.9282V16.4555H102.02L102.293 18.51C102.935 17.7221 103.553 17.1403 104.147 16.7646C104.729 16.3888 105.341 16.2009 105.984 16.2009C106.19 16.2009 106.384 16.2252 106.565 16.2736L106.347 18.8009C106.129 18.7524 105.875 18.7282 105.584 18.7282C104.953 18.7282 104.359 18.8676 103.802 19.1464C103.244 19.4252 102.838 19.7524 102.584 20.1282V28.9282H100.129ZM114.165 29.1827C112.735 29.1827 111.517 28.8918 110.511 28.31C109.493 27.7161 108.723 26.9221 108.202 25.9282C107.681 24.9221 107.42 23.807 107.42 22.5827C107.42 21.4191 107.656 20.3464 108.129 19.3646C108.614 18.3949 109.323 17.6252 110.256 17.0555C111.178 16.4858 112.268 16.2009 113.529 16.2009C115.117 16.2009 116.408 16.6676 117.402 17.6009C118.396 18.5343 118.893 19.8252 118.893 21.4736C118.893 21.8979 118.856 22.3039 118.784 22.6918H109.747C109.905 24.3039 110.402 25.4494 111.238 26.1282C112.062 26.807 113.129 27.1464 114.438 27.1464C115.747 27.1464 116.941 26.8979 118.02 26.4009L118.329 28.2191C116.887 28.8615 115.499 29.1827 114.165 29.1827ZM109.965 21.11H116.529C116.529 20.213 116.275 19.51 115.765 19.0009C115.256 18.4918 114.493 18.2373 113.475 18.2373C112.493 18.2373 111.717 18.4797 111.147 18.9646C110.59 19.4494 110.196 20.1646 109.965 21.11ZM124.42 29.1827C123.293 29.1827 122.475 28.8918 121.965 28.31C121.444 27.7403 121.184 27.0312 121.184 26.1827V9.83728H123.475V24.8555C123.475 25.607 123.523 26.1524 123.62 26.4918C123.705 26.8312 123.887 27.0555 124.165 27.1646C124.432 27.2858 124.875 27.3464 125.493 27.3464L125.147 29.1827H124.42ZM130.111 29.1827C128.959 29.1827 128.032 28.8433 127.329 28.1646C126.626 27.4858 126.275 26.6191 126.275 25.5646C126.275 23.9888 127.02 22.8615 128.511 22.1827C130.002 21.5039 131.741 21.1464 133.729 21.11C133.729 19.9949 133.517 19.2373 133.093 18.8373C132.656 18.4373 131.959 18.2373 131.002 18.2373C130.481 18.2373 129.959 18.3161 129.438 18.4736C128.905 18.6433 128.335 18.9403 127.729 19.3646L127.402 17.4918C127.911 17.1039 128.535 16.7949 129.275 16.5646C130.026 16.3221 130.808 16.2009 131.62 16.2009C132.687 16.2009 133.541 16.3888 134.184 16.7646C134.814 17.1403 135.281 17.7585 135.584 18.6191C135.875 19.4797 136.02 20.6676 136.02 22.1827V24.7282C136.02 25.407 136.05 25.9221 136.111 26.2736C136.172 26.613 136.305 26.8797 136.511 27.0736C136.717 27.2555 137.032 27.3464 137.456 27.3464H137.675L137.329 29.1827H137.147C136.432 29.1827 135.868 29.1161 135.456 28.9827C135.056 28.8494 134.747 28.6555 134.529 28.4009C134.323 28.1464 134.123 27.7949 133.929 27.3464C132.887 28.5706 131.614 29.1827 130.111 29.1827ZM130.547 27.3464C131.165 27.3464 131.759 27.1949 132.329 26.8918C132.887 26.5888 133.353 26.1827 133.729 25.6736V22.6918C131.899 22.7646 130.59 23.007 129.802 23.4191C129.014 23.8312 128.62 24.5039 128.62 25.4373C128.62 26.0797 128.796 26.5585 129.147 26.8736C129.487 27.1888 129.953 27.3464 130.547 27.3464ZM145.565 16.2009C146.693 16.2009 147.681 16.4979 148.529 17.0918C149.39 17.6858 150.05 18.4797 150.511 19.4736C150.972 20.4676 151.202 21.5403 151.202 22.6918C151.202 23.8797 150.947 24.9706 150.438 25.9646C149.941 26.9585 149.262 27.7403 148.402 28.31C147.553 28.8918 146.608 29.1827 145.565 29.1827C144.802 29.1827 144.062 29.0252 143.347 28.71C142.644 28.3949 142.093 27.9585 141.693 27.4009L141.438 28.9282H139.402V9.83728H141.693V17.91C142.153 17.3767 142.729 16.9585 143.42 16.6555C144.111 16.3524 144.826 16.2009 145.565 16.2009ZM145.293 27.1464C146.359 27.1464 147.22 26.7161 147.875 25.8555C148.529 25.007 148.856 23.9524 148.856 22.6918C148.856 21.407 148.529 20.3403 147.875 19.4918C147.22 18.6555 146.359 18.2373 145.293 18.2373C144.238 18.2373 143.353 18.6252 142.638 19.4009C141.923 20.1646 141.565 21.2615 141.565 22.6918C141.565 24.1706 141.917 25.2797 142.62 26.0191C143.335 26.7706 144.226 27.1464 145.293 27.1464Z" fill="black"/>
<defs>
<linearGradient id="paint0_linear_160_31259" x1="2.37679" y1="6.52772" x2="29.0635" y2="18.9719" gradientUnits="userSpaceOnUse">
<stop stop-color="#51A4FB"/>
<stop offset="1" stop-color="#51A4FB"/>
</linearGradient>
<linearGradient id="paint1_linear_160_31259" x1="0" y1="0" x2="35.3641" y2="16.4906" gradientUnits="userSpaceOnUse">
<stop stop-color="#51A4FB"/>
<stop offset="1" stop-color="#51A4FB"/>
</linearGradient>
</defs>
</svg>
